<?xml version="1.0" encoding="UTF-8" standalone="no"?>
<!-- Created with Inkscape (http://www.inkscape.org/) -->

<svg
   width="511.99994"
   height="511.99997"
   viewBox="0 0 135.46664 135.46666"
   version="1.1"
   id="svg1"
   xmlns="http://www.w3.org/2000/svg"
   xmlns:svg="http://www.w3.org/2000/svg">
  <defs
     id="defs1" />
  <g
     id="layer1">
    <path
       id="path1"
       style="fill:#000000;stroke:none;stroke-width:0.264999;stroke-linejoin:round"
       d="M 67.733332,0 A 67.73333,67.73333 0 0 0 0,67.733332 67.73333,67.73333 0 0 0 67.733332,135.46666 67.73333,67.73333 0 0 0 135.46666,67.733332 67.73333,67.73333 0 0 0 67.733332,0 Z m 0,28.298531 A 39.434841,39.434841 0 0 1 107.16813,67.733332 39.434841,39.434841 0 0 1 67.733332,107.16813 39.434841,39.434841 0 0 1 28.298531,67.733332 39.434841,39.434841 0 0 1 67.733332,28.298531 Z" />
  </g>
</svg>
